<svg width="13" height="12" viewBox="0 0 13 12" fill="none" xmlns="http://www.w3.org/2000/svg">
<path d="M12.2949 8.50725H3.79819L4.22481 7.60134L11.3133 7.58795C11.553 7.58795 11.7584 7.40945 11.8012 7.16251L12.7829 1.43399C12.8086 1.28375 12.77 1.12904 12.6759 1.01153C12.6293 0.953693 12.5713 0.907106 12.5057 0.874997C12.4402 0.842889 12.3687 0.826029 12.2963 0.825586L3.27883 0.794347L3.20178 0.416512C3.15327 0.17553 2.94496 0 2.7081 0H0.503667C0.370086 0 0.241977 0.0553231 0.147521 0.153799C0.0530648 0.252275 0 0.385837 0 0.525102C0 0.664368 0.0530648 0.79793 0.147521 0.896406C0.241977 0.994881 0.370086 1.0502 0.503667 1.0502H2.30003L2.63676 2.71923L3.46575 6.90368L2.39848 8.71997C2.34306 8.79796 2.30968 8.89056 2.30211 8.98731C2.29455 9.08405 2.3131 9.18107 2.35568 9.26739C2.44129 9.4444 2.61393 9.55597 2.80513 9.55597H3.70117C3.51015 9.82049 3.40697 10.1427 3.40725 10.4738C3.40725 11.3157 4.06358 12 4.87116 12C5.67874 12 6.33508 11.3157 6.33508 10.4738C6.33508 10.1421 6.2295 9.81926 6.04115 9.55597H8.33976C8.14874 9.82049 8.04556 10.1427 8.04584 10.4738C8.04584 11.3157 8.70217 12 9.50975 12C10.3173 12 10.9737 11.3157 10.9737 10.4738C10.9737 10.1421 10.8681 9.81926 10.6797 9.55597H12.2963C12.5731 9.55597 12.8 9.32094 12.8 9.03087C12.7992 8.89175 12.7456 8.75862 12.651 8.66052C12.5563 8.56242 12.4283 8.50733 12.2949 8.50725ZM3.48857 1.82968L11.7042 1.85794L10.8995 6.5556L4.44597 6.5675L3.48857 1.82968ZM4.87116 10.9438C4.6229 10.9438 4.42029 10.7326 4.42029 10.4738C4.42029 10.2149 4.6229 10.0037 4.87116 10.0037C5.11943 10.0037 5.32204 10.2149 5.32204 10.4738C5.32204 10.5985 5.27454 10.718 5.18998 10.8062C5.10542 10.8943 4.99074 10.9438 4.87116 10.9438ZM9.50975 10.9438C9.26149 10.9438 9.05888 10.7326 9.05888 10.4738C9.05888 10.2149 9.26149 10.0037 9.50975 10.0037C9.75802 10.0037 9.96063 10.2149 9.96063 10.4738C9.96063 10.5985 9.91313 10.718 9.82857 10.8062C9.74401 10.8943 9.62933 10.9438 9.50975 10.9438Z" fill="#3A2622"/>
</svg>
