<svg width="612" height="137" viewBox="0 0 612 137" fill="none" xmlns="http://www.w3.org/2000/svg">
<g opacity="0.68">
<path opacity="0.9" d="M541.624 86.4874C532.124 86.4874 522.924 78.834 519.162 47.1571H564.087C561.01 77.9141 551.125 86.4874 541.624 86.4874Z" fill="#FCFFF8"/>
<path opacity="0.9" d="M431.709 72.0929L432.365 73.9252C432.923 73.7217 433.481 73.5407 434.039 73.3673C434.71 74.34 435.351 75.3428 435.947 76.3683C435.132 76.5945 434.326 76.8509 433.519 77.1374L434.175 78.9697L434.831 80.802C435.819 80.4476 436.814 80.1535 437.817 79.8972C438.473 81.2771 439.061 82.6946 439.589 84.1499C438.51 84.3912 437.44 84.7004 436.377 85.0849L437.04 86.9172L437.696 88.7495C438.714 88.3876 439.74 88.1086 440.765 87.8899C441.021 88.8626 441.255 89.8429 441.451 90.8382H437.063C432.848 71.6481 415.724 57.2461 395.289 57.2461C374.855 57.2461 357.731 71.6556 353.516 90.8382H349.135C349.263 90.2048 349.399 89.5789 349.55 88.9531C350.515 89.1567 351.473 89.4131 352.43 89.7448L353.064 87.9276L353.697 86.1179C352.671 85.7635 351.638 85.477 350.605 85.2433C351.08 83.8031 351.631 82.393 352.234 81.0207C353.214 81.262 354.195 81.541 355.167 81.8803L355.801 80.0631L356.434 78.2534C355.612 77.9669 354.79 77.718 353.968 77.4994C354.738 76.0969 355.575 74.7321 356.479 73.42C357.369 73.6613 358.259 73.9252 359.141 74.2344L359.774 72.4247L360.408 70.6075C359.925 70.4416 359.443 70.2908 358.953 70.14C367.594 59.6665 380.661 52.9782 395.267 52.9707C409.85 52.9707 422.902 59.6439 431.543 70.0948C431.37 70.1551 431.196 70.2079 431.03 70.2682L431.709 72.0929Z" fill="#FCFFF8"/>
<path opacity="0.9" d="M395.29 60.9936C413.65 60.9936 429.078 73.7367 433.225 90.8457H428.806C424.765 76.127 411.275 65.2765 395.29 65.2765C379.304 65.2765 365.815 76.127 361.773 90.8457H357.354C361.502 73.7367 376.929 60.9936 395.29 60.9936Z" fill="#FCFFF8"/>
<path opacity="0.9" d="M395.289 70.2606C408.5 70.2606 419.72 78.9094 423.596 90.8457H419.056C415.362 81.3223 406.102 74.5435 395.289 74.5435C384.477 74.5435 375.217 81.3223 371.522 90.8457H366.983C370.866 78.9094 382.079 70.2606 395.289 70.2606Z" fill="#FCFFF8"/>
<path opacity="0.9" d="M434.047 73.3673C433.489 73.5407 432.931 73.7292 432.373 73.9253L431.717 72.093L431.061 70.2607C431.227 70.2003 431.4 70.1476 431.574 70.0872C451.849 63.0974 473.935 72.2513 483.579 90.8382H479.115C470.097 75.5163 451.465 67.9835 434.047 73.3673Z" fill="#FCFFF8"/>
<path opacity="0.9" d="M437.817 79.9047C436.814 80.1536 435.819 80.4476 434.831 80.8096L434.175 78.9773L433.519 77.145C434.326 76.8585 435.14 76.6021 435.947 76.3759C450.915 72.1759 466.689 78.2911 475.089 90.8457H470.256C462.662 81.3525 450.002 76.8358 437.817 79.9047Z" fill="#FCFFF8"/>
<path opacity="0.9" d="M440.758 87.8899C439.732 88.1086 438.707 88.3876 437.689 88.7495L437.033 86.9172L436.369 85.0849C437.432 84.7004 438.511 84.3987 439.581 84.1499C448.502 82.1366 457.648 84.8361 464.072 90.8382H457.678C452.739 87.807 446.699 86.6382 440.758 87.8899Z" fill="#FCFFF8"/>
<path opacity="0.9" d="M359.789 72.4248L359.156 74.2345C358.274 73.9253 357.384 73.6614 356.494 73.4201C339.732 68.8808 322.141 76.2477 313.447 90.8382H309.043C318.386 73.0431 339.363 64.055 358.968 70.1325C359.45 70.2833 359.94 70.4341 360.423 70.6L359.789 72.4248Z" fill="#FCFFF8"/>
<path opacity="0.9" d="M353.984 77.4994C354.805 77.7256 355.627 77.9669 356.449 78.2534L355.816 80.0631L355.182 81.8803C354.21 81.541 353.229 81.2544 352.249 81.0207C340.743 78.2157 328.859 82.2498 321.349 90.8382H316.44C324.803 79.2563 339.725 73.6538 353.984 77.4994Z" fill="#FCFFF8"/>
<path opacity="0.9" d="M350.614 85.2433C351.647 85.4695 352.68 85.756 353.705 86.1179L353.072 87.9276L352.438 89.7448C351.481 89.4131 350.523 89.1491 349.558 88.9531C344.43 87.8824 339.235 88.6289 334.756 90.8382H327.744C333.949 85.6731 342.364 83.4261 350.614 85.2433Z" fill="#FCFFF8"/>
<path opacity="0.9" d="M0.161926 132.385L232.479 132.4L233.934 66.0456C227.962 64.2435 223.868 58.7768 223.868 52.4655V31.3602C223.868 29.0528 225.746 27.1753 228.053 27.1753C228.136 27.1753 228.226 27.1828 228.309 27.1904H228.339C230.526 27.3336 232.238 29.1659 232.238 31.3602L232.245 47.1722C232.245 48.5295 232.705 49.2156 233.61 49.2156C234.507 49.2156 234.967 48.5295 234.967 47.1722V31.0284C234.967 28.9096 236.694 27.1828 238.813 27.1828C240.932 27.1828 242.658 28.9096 242.658 31.0284V47.1722C242.658 48.5295 243.118 49.2156 244.031 49.2156C244.928 49.2156 245.388 48.5295 245.388 47.1722V31.3602C245.388 29.1735 247.1 27.3412 249.279 27.1904H249.309C249.392 27.1828 249.482 27.1753 249.565 27.1753C251.873 27.1753 253.75 29.0528 253.75 31.3602L253.743 33.019V44.5482V44.6387C253.743 44.7216 253.75 44.8121 253.75 44.9026V52.4731C253.75 58.7843 249.656 64.251 243.684 66.0532L245.139 132.408H268.884L270.331 66.6111C263.568 64.6733 260.273 58.3168 260.273 47.2175C260.273 42.1353 262.007 37.1436 265.159 33.1472C268.107 29.4148 271.87 27.1904 275.218 27.1904C282.132 27.1904 290.162 35.9371 290.162 47.2175C290.162 57.8267 286.686 64.4923 280.104 66.5508L281.551 132.415H342.379C317.707 123.352 303.117 108.746 303.117 92.8665C303.117 92.7761 303.124 92.6856 303.132 92.6026C303.252 91.6224 304.089 90.8608 305.107 90.8608H309.036H313.439H316.425H321.334H327.728H334.741H349.128H353.509H357.354H361.773H366.976H371.515H419.049H423.588H428.799H433.217H437.063H441.444H457.686H464.08H470.263H475.096H479.115H483.579H488.608C489.664 90.8608 490.524 91.6827 490.592 92.7233C490.592 92.7685 490.599 92.8213 490.599 92.8741C490.599 108.762 476.009 123.36 451.337 132.423H537.522L537.636 95.8902C537.274 95.8223 536.919 95.762 536.565 95.6791C517.028 91.3585 507.874 61.2424 507.874 1.83984V0H575.571V1.81722C575.571 61.2198 566.409 91.3358 546.872 95.6564C546.035 95.845 545.183 95.9882 544.316 96.0787L544.331 132.4H608.997C610.234 132.4 611.244 133.403 611.244 134.647C611.244 135.892 610.241 136.894 608.997 136.894H560.536C560.415 136.902 560.287 136.91 560.159 136.91H523.279C523.151 136.91 523.03 136.902 522.902 136.894H449.949C449.504 136.894 449.097 136.759 448.75 136.54L448.743 136.533C448.502 136.374 448.29 136.178 448.124 135.944L445.742 133.675H445.817C445.757 133.645 445.704 133.607 445.644 133.577L444.988 132.868C444.844 132.612 444.754 132.317 444.739 132.008C444.694 131.119 445.252 130.304 446.104 130.025C470.346 122.04 485.253 108.995 486.52 94.827H485.381H481.144H477.388H472.97H467.571H462.549H442.055H437.741H433.971H429.658H424.591H420.24H370.339H365.988H360.921H356.608H352.838H348.517H329.048H323.86H318.386H313.937H311.388H307.204H307.181C307.181 94.8421 307.188 94.8572 307.188 94.8723C307.249 95.5584 307.354 96.2446 307.483 96.9232C309.963 110.277 324.561 122.44 347.605 130.033C348.457 130.312 349.015 131.126 348.969 132.016C348.954 132.378 348.834 132.717 348.645 133.004C348.645 133.004 345.373 136.902 345.011 136.902H280.285C279.757 136.902 279.335 135.899 279.335 134.655C279.335 134.293 279.372 133.954 279.44 133.652L279.335 128.902L279.206 123.028L277.932 64.907L278.769 64.7035C284.914 63.1954 288.029 57.3139 288.029 47.2175C288.029 37.3095 281.024 29.3318 275.225 29.3318C270.067 29.3318 262.422 36.842 262.422 47.2175C262.422 57.7664 265.355 63.3387 271.659 64.7411L272.518 64.9297L271.244 123.028L271.116 128.902L271.018 133.215C271.078 133.607 271.116 134.105 271.116 134.647C271.116 135.892 270.935 136.894 270.716 136.894H243.443C243.224 136.894 243.043 135.892 243.043 134.647C243.043 134.527 243.043 134.406 243.051 134.293L243.02 134.263C243.035 134.172 243.043 134.082 243.043 133.984L242.93 128.887L242.877 127.424L242.802 124.536V123.005L241.52 64.3792L242.364 64.1756C247.816 62.8862 251.624 58.068 251.624 52.458V44.895C251.624 44.8347 251.624 44.7669 251.624 44.7065V31.9408L251.631 31.2471C251.571 30.1763 250.681 29.3167 249.596 29.3167C249.558 29.3167 249.528 29.3243 249.497 29.3243H249.452C248.389 29.3997 247.552 30.2894 247.552 31.3602V47.1722C247.552 49.7585 246.21 51.3646 244.053 51.3646C241.919 51.3646 240.54 49.7208 240.54 47.1722V31.0284C240.54 30.0859 239.778 29.3243 238.835 29.3243C237.893 29.3243 237.131 30.0859 237.131 31.0284V47.1722C237.131 49.751 235.789 51.3571 233.633 51.3571C231.499 51.3571 230.119 49.7133 230.119 47.1722L230.111 31.3602C230.111 30.2894 229.274 29.3997 228.204 29.3243H228.166C228.136 29.3243 228.106 29.3167 228.068 29.3167C226.944 29.3167 226.025 30.2291 226.025 31.3602V52.4655C226.025 58.0755 229.832 62.8938 235.284 64.1832L236.129 64.3868L234.847 123.013L234.877 125.116L234.824 126.662L234.718 128.887L234.605 133.961C234.605 133.984 234.613 134.006 234.613 134.037C234.613 134.037 234.681 137 234.1 136.887L0.0789185 137C-0.139709 137 0.161926 136.457 0.161926 135.213C0.139282 133.072 -0.06427 132.385 0.161926 132.385ZM560.536 77.4541C561.033 76.4437 561.501 75.3353 561.946 74.1364C567.714 59.3875 570.692 37.1361 570.79 4.90121H512.647C512.753 37.0984 515.723 59.3423 521.484 74.0911C521.929 75.3202 522.419 76.4513 522.924 77.4843C527.607 87.528 533.881 92.5875 541.722 92.5875C549.572 92.5951 555.853 87.5204 560.536 77.4541Z" fill="#FCFFF8"/>
</g>
</svg>
