<svg width="18" height="18" viewBox="0 0 18 18" fill="none" xmlns="http://www.w3.org/2000/svg">
<path d="M8.73647 6.2464C8.07651 6.2464 7.44358 6.50849 6.97692 6.97502C6.51026 7.44154 6.2481 8.07429 6.2481 8.73405C6.2481 9.39382 6.51026 10.0266 6.97692 10.4931C7.44358 10.9596 8.07651 11.2217 8.73647 11.2217C9.39643 11.2217 10.0294 10.9596 10.496 10.4931C10.9627 10.0266 11.2248 9.39382 11.2248 8.73405C11.2248 8.07429 10.9627 7.44154 10.496 6.97502C10.0294 6.50849 9.39643 6.2464 8.73647 6.2464ZM8.73647 4.58797C9.8364 4.58797 10.8913 5.02479 11.669 5.80233C12.4468 6.57987 12.8838 7.63444 12.8838 8.73405C12.8838 9.83366 12.4468 10.8882 11.669 11.6658C10.8913 12.4433 9.8364 12.8801 8.73647 12.8801C7.63654 12.8801 6.58166 12.4433 5.80389 11.6658C5.02613 10.8882 4.58918 9.83366 4.58918 8.73405C4.58918 7.63444 5.02613 6.57987 5.80389 5.80233C6.58166 5.02479 7.63654 4.58797 8.73647 4.58797ZM14.1279 4.38067C14.1279 4.65557 14.0187 4.91921 13.8243 5.1136C13.6298 5.30798 13.3661 5.41719 13.0911 5.41719C12.8161 5.41719 12.5524 5.30798 12.358 5.1136C12.1635 4.91921 12.0543 4.65557 12.0543 4.38067C12.0543 4.10577 12.1635 3.84212 12.358 3.64774C12.5524 3.45335 12.8161 3.34415 13.0911 3.34415C13.3661 3.34415 13.6298 3.45335 13.8243 3.64774C14.0187 3.84212 14.1279 4.10577 14.1279 4.38067ZM8.73647 2.10033C6.68439 2.10033 6.34929 2.10613 5.39458 2.14842C4.74429 2.1791 4.308 2.26617 3.90322 2.42372C3.54324 2.56303 3.28362 2.7297 3.00741 3.00666C2.74779 3.25741 2.54818 3.56355 2.42347 3.90221C2.26587 4.30853 2.17878 4.74387 2.14892 5.39314C2.10579 6.30859 2.10081 6.62867 2.10081 8.73405C2.10081 10.7855 2.10662 11.1205 2.14892 12.075C2.17961 12.7242 2.2667 13.1612 2.42347 13.5651C2.56448 13.9258 2.73037 14.1853 3.00575 14.4606C3.28527 14.7392 3.54489 14.9059 3.90156 15.0436C4.31131 15.2019 4.74761 15.2898 5.39458 15.3197C6.31031 15.3628 6.63048 15.3678 8.73647 15.3678C10.7885 15.3678 11.1236 15.362 12.0784 15.3197C12.727 15.289 13.1641 15.2019 13.5689 15.0452C13.928 14.9051 14.1893 14.7384 14.4647 14.4631C14.7442 14.1837 14.9109 13.9241 15.0486 13.5675C15.2062 13.1587 15.2942 12.7217 15.324 12.075C15.3672 11.1595 15.3721 10.8394 15.3721 8.73405C15.3721 6.68257 15.3663 6.34757 15.324 5.39314C15.2933 4.74469 15.2062 4.30687 15.0486 3.90221C14.9236 3.56389 14.7244 3.25788 14.4655 3.00666C14.2148 2.74699 13.9086 2.54741 13.5697 2.42289C13.1633 2.26534 12.727 2.17827 12.0784 2.14842C11.1626 2.1053 10.8425 2.10033 8.73647 2.10033ZM8.73647 0.441895C10.9901 0.441895 11.2713 0.450187 12.1555 0.491647C13.0389 0.533108 13.6402 0.671587 14.1694 0.877233C14.7169 1.08785 15.178 1.3731 15.6392 1.83332C16.061 2.24784 16.3873 2.74926 16.5956 3.30269C16.8005 3.8309 16.9398 4.43291 16.9813 5.31602C17.0203 6.19997 17.031 6.48107 17.031 8.73405C17.031 10.987 17.0227 11.2681 16.9813 12.1521C16.9398 13.0352 16.8005 13.6364 16.5956 14.1654C16.3879 14.7191 16.0615 15.2207 15.6392 15.6348C15.2245 16.0563 14.7229 16.3825 14.1694 16.5909C13.641 16.7957 13.0389 16.935 12.1555 16.9765C11.2713 17.0154 10.9901 17.0262 8.73647 17.0262C6.48283 17.0262 6.20165 17.0179 5.31744 16.9765C4.43407 16.935 3.83272 16.7957 3.30352 16.5909C2.74972 16.3831 2.24806 16.0568 1.83372 15.6348C1.41187 15.2203 1.0855 14.7189 0.87736 14.1654C0.671654 13.6372 0.533135 13.0352 0.491662 12.1521C0.452677 11.2681 0.441895 10.987 0.441895 8.73405C0.441895 6.48107 0.450189 6.19997 0.491662 5.31602C0.533135 4.43208 0.671654 3.83173 0.87736 3.30269C1.08492 2.74892 1.41137 2.24736 1.83372 1.83332C2.24818 1.41144 2.7498 1.08514 3.30352 0.877233C3.83272 0.671587 4.43324 0.533108 5.31744 0.491647C6.20165 0.452674 6.48283 0.441895 8.73647 0.441895Z" fill="#444343"/>
</svg>
