<svg width="18" height="17" viewBox="0 0 18 17" fill="none" xmlns="http://www.w3.org/2000/svg">
<path d="M11.5147 8.29965C11.5252 8.95952 11.2733 9.59656 10.8143 10.0706C10.3553 10.5447 9.72684 10.817 9.06716 10.8275C8.40748 10.8381 7.77063 10.5861 7.29669 10.1269C6.82276 9.66779 6.55058 9.03914 6.54002 8.37927C6.52945 7.71939 6.78138 7.08235 7.24038 6.60829C7.69938 6.13422 8.32784 5.86196 8.98752 5.8514C9.6472 5.84085 10.2841 6.09285 10.758 6.55199C11.2319 7.01112 11.5041 7.63978 11.5147 8.29965ZM13.1729 8.27311C13.1553 7.17332 12.7016 6.12557 11.9118 5.36034C11.1219 4.59512 10.0604 4.17511 8.96098 4.1927C7.86151 4.2103 6.81407 4.66406 6.04907 5.45417C5.28408 6.24428 4.86419 7.30602 4.8818 8.40581C4.8994 9.50559 5.35304 10.5533 6.14293 11.3186C6.93282 12.0838 7.99424 12.5038 9.09371 12.4862C10.1932 12.4686 11.2406 12.0149 12.0056 11.2247C12.7706 10.4346 13.1905 9.3729 13.1729 8.27311ZM13.2939 2.87901C13.019 2.88341 12.7572 2.99685 12.5659 3.19438C12.3747 3.3919 12.2697 3.65734 12.2741 3.93229C12.2785 4.20723 12.3919 4.46917 12.5894 4.66048C12.7869 4.85179 13.0522 4.95679 13.3271 4.95239C13.6019 4.94799 13.8638 4.83455 14.0551 4.63702C14.2463 4.43949 14.3513 4.17406 14.3469 3.89911C14.3425 3.62417 14.2291 3.36223 14.0316 3.17092C13.8341 2.97961 13.5688 2.87461 13.2939 2.87901ZM15.6602 8.2333C15.6931 10.2851 15.6926 10.6203 15.6656 11.5755C15.6453 12.2262 15.5653 12.6639 15.4142 13.0711C15.2807 13.4333 15.1182 13.6955 14.8457 13.9761C14.5991 14.2397 14.2962 14.4442 13.9596 14.5743C13.5558 14.7384 13.122 14.8325 12.4732 14.8727C11.5586 14.9305 11.2386 14.9406 9.13353 14.9743C7.08231 15.0071 6.74726 15.0067 5.79228 14.9796C5.1426 14.9593 4.70426 14.8792 4.29798 14.729C3.93506 14.5937 3.67289 14.432 3.39322 14.1611C3.11017 13.8861 2.93936 13.6291 2.79602 13.2747C2.63111 12.8675 2.53624 12.4327 2.49604 11.7863C2.43827 10.8714 2.42817 10.5513 2.39447 8.44562C2.36163 6.3938 2.36207 6.05865 2.38908 5.10339C2.40938 4.45435 2.48944 4.01588 2.63966 3.60865C2.77403 3.2473 2.9365 2.98339 3.20736 2.70364C3.4823 2.41968 3.73914 2.24882 4.09345 2.10544C4.49968 1.94132 4.93522 1.84642 5.58144 1.80621C6.49609 1.74844 6.81605 1.73834 8.92116 1.70465C10.9724 1.67182 11.3074 1.67226 12.2624 1.69929C12.9113 1.7196 13.3504 1.79967 13.7576 1.95077C14.0978 2.07035 14.407 2.26468 14.6623 2.51948C14.926 2.76601 15.1304 3.06903 15.2604 3.40583C15.4244 3.8097 15.5184 4.24454 15.5587 4.89262C15.6164 5.80753 15.6265 6.12758 15.6602 8.2333ZM17.3184 8.20676C17.2824 5.95342 17.2696 5.6724 17.214 4.78897C17.1584 3.90638 17.0103 3.30731 16.7962 2.78148C16.5769 2.23748 16.2843 1.78092 15.8167 1.32717C15.3955 0.912081 14.8889 0.593789 14.3322 0.39444C13.8008 0.198043 13.1967 0.0683457 12.313 0.0410097C11.4285 0.0161758 11.1473 0.0098933 8.89461 0.0459467C6.64192 0.0820001 6.36098 0.0947906 5.47782 0.150404C4.59548 0.206004 3.99661 0.354956 3.47091 0.568272C2.92057 0.784738 2.42432 1.11916 2.01703 1.54803C1.60222 1.96948 1.28405 2.47617 1.08459 3.03294C0.888257 3.56451 0.758602 4.16885 0.731284 5.05277C0.706464 5.93748 0.700186 6.21881 0.73625 8.47215C0.772314 10.7255 0.785104 11.0065 0.84071 11.8899C0.896301 12.7725 1.04522 13.3716 1.25847 13.8974C1.47505 14.4478 1.80936 14.9442 2.23796 15.3517C2.65911 15.7669 3.16571 16.0852 3.72244 16.2845C4.25388 16.4817 4.85803 16.6106 5.74169 16.6379C6.62615 16.6627 6.90739 16.669 9.16008 16.633C11.4128 16.5969 11.6937 16.5841 12.5769 16.5285C13.46 16.4729 14.0581 16.3248 14.5838 16.1106C15.1342 15.8942 15.6304 15.5598 16.0377 15.1309C16.4528 14.7097 16.7711 14.203 16.9701 13.646C17.1672 13.1136 17.2961 12.5109 17.3234 11.6261C17.3482 10.7414 17.3545 10.4601 17.3184 8.20676Z" fill="white"/>
</svg>
