<svg width="80" height="80" viewBox="0 0 80 80" fill="none" xmlns="http://www.w3.org/2000/svg">
<path d="M64.9673 26.6303C63.2008 27.1652 56.8073 20.2813 53.1211 19.1738C49.4347 18.0509 45.3365 17.8924 41.9018 19.5517C39.9784 20.4802 38.246 22.0763 37.7926 24.1943C37.3761 26.1654 38.1497 28.2473 39.3711 29.8605C40.6077 31.4739 42.0866 32.7641 43.7178 33.9627C39.4794 31.4102 35.1562 28.8183 30.3875 27.6321C27.7339 26.967 24.8705 26.7802 22.373 27.8355C19.8831 28.8832 17.8844 31.4064 18.0897 34.1571C18.2873 36.9001 21.4874 40.6596 24.0406 39.7983C19.8928 41.4902 15.5852 43.3124 12.7218 46.773C10.2826 49.7261 9.42928 53.9393 11.0552 57.5538C13.3255 62.6297 18.0966 65.5041 23.5453 64.2336C27.9149 63.2095 31.4655 60.1651 34.8252 57.2043C32.9121 59.1241 34.8621 63.6475 37.2243 65.0458C39.5864 66.4441 42.7401 65.7892 44.7851 64.0176C46.8379 62.2538 47.9376 59.5915 48.531 56.9249C49.593 52.1249 49.2027 47.1037 48.7981 42.1752C49.1335 44.1682 49.6368 46.0697 50.5382 47.897C51.4318 49.7166 52.9601 51.3325 54.9062 51.8367C56.9908 52.3731 59.2068 51.54 60.8884 50.23C63.8941 47.8934 65.5731 44.1441 66.216 40.3473C66.8816 36.5275 63.708 27.9825 64.9673 26.6303Z" stroke="#C2ABA7" stroke-opacity="0.4" stroke-width="2" stroke-miterlimit="10" stroke-linecap="round" stroke-linejoin="round"/>
<path d="M28.1313 50.2329C42.672 41.783 56.7984 32.6094 70.4189 22.7424" stroke="#C2ABA7" stroke-opacity="0.4" stroke-width="2" stroke-miterlimit="10" stroke-linecap="round" stroke-linejoin="round"/>
<path d="M59.7933 29.9243C55.8595 27.1575 51.2536 25.3996 46.5298 24.8409" stroke="#C2ABA7" stroke-opacity="0.4" stroke-width="2" stroke-miterlimit="10" stroke-linecap="round" stroke-linejoin="round"/>
<path d="M58.4602 31.5702C61.1569 35.6042 61.7121 40.9909 59.8944 45.4128" stroke="#C2ABA7" stroke-opacity="0.4" stroke-width="2" stroke-miterlimit="10" stroke-linecap="round" stroke-linejoin="round"/>
<path d="M52.0206 34.8922C50.7384 34.0605 49.3131 33.4832 47.8218 33.1919" stroke="#C2ABA7" stroke-opacity="0.4" stroke-width="2" stroke-miterlimit="10" stroke-linecap="round" stroke-linejoin="round"/>
<path d="M44.1949 39.9451C39.8721 37.3842 34.6462 36.4883 29.793 37.4851" stroke="#C2ABA7" stroke-opacity="0.4" stroke-width="2" stroke-miterlimit="10" stroke-linecap="round" stroke-linejoin="round"/>
<path d="M40.4673 42.9649C42.2794 48.2382 41.79 54.2278 39.1557 59.0533" stroke="#C2ABA7" stroke-opacity="0.4" stroke-width="2" stroke-miterlimit="10" stroke-linecap="round" stroke-linejoin="round"/>
<path d="M33.5635 46.6467C29.1789 45.5101 24.5006 45.6256 20.2344 46.999" stroke="#C2ABA7" stroke-opacity="0.4" stroke-width="2" stroke-miterlimit="10" stroke-linecap="round" stroke-linejoin="round"/>
<path d="M30.0393 49.2885C30.5781 53.1108 28.7406 57.1143 25.5323 59.1394" stroke="#C2ABA7" stroke-opacity="0.4" stroke-width="2" stroke-miterlimit="10" stroke-linecap="round" stroke-linejoin="round"/>
</svg>
