<svg width="13" height="16" viewBox="0 0 13 16" fill="none" xmlns="http://www.w3.org/2000/svg">
<path d="M3.62721 15.2022C3.34024 15.0864 3.24657 14.8326 3.19645 14.56C3.08012 13.9311 3.1356 13.3016 3.20958 12.6733C3.34501 11.518 3.68627 10.4061 3.93327 9.27495C4.07228 8.64062 4.22978 8.00991 4.37237 7.37618C4.38908 7.30202 4.37893 7.21338 4.35567 7.13982C4.06213 6.20883 4.03946 5.29532 4.54181 4.42403C4.81804 3.94527 5.21657 3.62026 5.775 3.53102C6.57147 3.40379 7.26652 3.98205 7.32141 4.79727C7.36079 5.37914 7.19732 5.92121 7.04458 6.4675C6.90498 6.96677 6.75463 7.46301 6.61682 7.96288C6.53508 8.25894 6.54821 8.54957 6.71466 8.8191C6.96404 9.22309 7.34766 9.35937 7.78975 9.3268C8.3619 9.2852 8.77773 8.95778 9.11303 8.51219C9.53782 7.9472 9.76811 7.29659 9.90413 6.60981C10.036 5.94533 10.1052 5.27362 10.005 4.59708C9.83851 3.47615 9.21326 2.72243 8.15129 2.38356C7.07501 2.04047 6.0029 2.09715 4.98867 2.62656C3.96847 3.15838 3.3635 4.02606 3.11412 5.14699C2.98466 5.72826 2.9602 6.31616 3.19705 6.87933C3.28237 7.08193 3.40765 7.27127 3.5401 7.44734C3.69224 7.64933 3.74653 7.85675 3.6809 8.10096C3.62303 8.31622 3.5759 8.5345 3.51385 8.74855C3.39691 9.15194 3.10219 9.2846 2.72036 9.11275C1.95133 8.76664 1.47225 8.15342 1.20676 7.36955C0.774817 6.09306 0.849393 4.82983 1.42631 3.61725C2.2735 1.83486 3.70954 0.81342 5.60318 0.419075C6.48795 0.234565 7.37869 0.220094 8.26704 0.390736C9.27948 0.585496 10.1839 1.01361 10.9464 1.7215C11.7733 2.48908 12.3234 3.42671 12.4743 4.55367C12.6897 6.163 12.3992 7.69395 11.5609 9.08682C10.8325 10.297 9.76751 11.0435 8.35832 11.2262C7.49264 11.3383 6.69557 11.1562 6.01424 10.5725C5.99694 10.5581 5.97665 10.5466 5.94444 10.5249C5.83347 10.9597 5.72309 11.3799 5.61928 11.802C5.39496 12.7143 5.09844 13.5989 4.62832 14.4153C4.4732 14.6848 4.29601 14.9405 4.02276 15.1057C3.96131 15.1425 3.89449 15.1696 3.83005 15.201H3.62721V15.2022Z" fill="#444343"/>
</svg>
