<svg width="12" height="16" viewBox="0 0 12 16" fill="none" xmlns="http://www.w3.org/2000/svg">
<path d="M2.91529 15.1412C2.62832 15.0254 2.53466 14.7716 2.48454 14.499C2.3682 13.8701 2.42369 13.2406 2.49767 12.6123C2.6331 11.457 2.97436 10.3452 3.22135 9.21397C3.36036 8.57965 3.51787 7.94894 3.66046 7.31521C3.67716 7.24104 3.66702 7.15241 3.64375 7.07885C3.35022 6.14785 3.32755 5.23435 3.82989 4.36305C4.10612 3.88429 4.50466 3.55929 5.06309 3.47005C5.85956 3.34282 6.55461 3.92107 6.6095 4.73629C6.64887 5.31816 6.4854 5.86024 6.33267 6.40653C6.19306 6.90579 6.04272 7.40204 5.9049 7.9019C5.82317 8.19796 5.83629 8.4886 6.00275 8.75813C6.25213 9.16212 6.63575 9.29839 7.07784 9.26583C7.64998 9.22423 8.06582 8.89681 8.40111 8.45121C8.8259 7.88623 9.05619 7.23562 9.19222 6.54883C9.32407 5.88435 9.39328 5.21264 9.29305 4.53611C9.12659 3.41518 8.50134 2.66146 7.43938 2.32259C6.3631 1.9795 5.29099 2.03618 4.27675 2.56559C3.25655 3.09741 2.65159 3.96509 2.40221 5.08602C2.27274 5.66728 2.24828 6.25518 2.48514 6.81836C2.57045 7.02096 2.69574 7.21029 2.82819 7.38636C2.98032 7.58836 3.03461 7.79578 2.96899 8.03998C2.91112 8.25525 2.86398 8.47352 2.80194 8.68758C2.685 9.09097 2.39028 9.22362 2.00845 9.05177C1.23942 8.70567 0.760339 8.09244 0.494848 7.30858C0.0629029 6.03208 0.137479 4.76885 0.7144 3.55627C1.56159 1.77388 2.99762 0.752446 4.89126 0.358101C5.77603 0.173591 6.66677 0.15912 7.55512 0.329761C8.56757 0.524522 9.47203 0.952633 10.2345 1.66052C11.0614 2.42811 11.6115 3.36573 11.7624 4.49269C11.9778 6.10203 11.6872 7.63298 10.849 9.02585C10.1205 10.236 9.0556 10.9825 7.6464 11.1652C6.78072 11.2774 5.98365 11.0953 5.30233 10.5116C5.28502 10.4971 5.26474 10.4856 5.23252 10.4639C5.12155 10.8987 5.01118 11.319 4.90737 11.741C4.68305 12.6533 4.38653 13.5379 3.9164 14.3543C3.76128 14.6239 3.58409 14.8795 3.31084 15.0447C3.24939 15.0815 3.18257 15.1086 3.11814 15.14H2.91529V15.1412Z" fill="white"/>
</svg>
