<svg width="18" height="15" viewBox="0 0 18 15" fill="none" xmlns="http://www.w3.org/2000/svg">
<path d="M17.0318 3.04224C16.7745 3.45609 16.5136 3.86836 16.264 4.28658C16.2198 4.36078 16.1942 4.46593 16.2072 4.54965C16.4677 6.21657 16.3021 7.83191 15.6058 9.38297C15.2145 10.2547 14.6712 11.0308 14.0328 11.7478C12.696 13.2501 10.9713 14.008 8.98966 14.2591C6.65295 14.5555 4.38481 14.2671 2.19135 13.429C1.76362 13.2656 1.35495 13.0592 1.01001 12.7537C0.795733 12.564 0.737701 12.3748 0.820894 12.1633C0.903276 11.9546 1.08305 11.857 1.36794 11.8522C1.88577 11.8439 2.40522 11.8526 2.92061 11.8121C3.78055 11.7447 4.57352 11.4792 5.27559 10.9328C5.18225 10.907 5.10555 10.8864 5.02926 10.865C4.11941 10.611 3.25988 10.2547 2.51763 9.66667C2.35855 9.54089 2.20596 9.40519 2.0623 9.26313C1.77214 8.97625 1.88414 8.55447 2.2786 8.43741C2.44296 8.38861 2.61016 8.34972 2.79278 8.30171C2.53711 8.13863 2.29199 7.99935 2.06514 7.83548C1.1561 7.17879 0.639492 6.28561 0.449162 5.20634C0.389101 4.86629 0.710916 4.58973 1.05992 4.67107C1.23645 4.71233 1.40933 4.76947 1.59317 4.82264C1.5047 4.56711 1.40406 4.33062 1.34075 4.08501C1.10091 3.15533 1.21576 2.27445 1.76118 1.4646C2.04647 1.04122 2.46 1.05233 2.71324 1.49198C3.20915 2.35222 3.83249 3.10692 4.62506 3.72234C5.64976 4.5187 6.81284 4.99882 8.11065 5.16666C8.14799 5.17142 8.18533 5.17817 8.22266 5.18253C8.25959 5.1869 8.29652 5.18928 8.33913 5.19285C8.35293 4.93097 8.35455 4.67345 8.38215 4.41831C8.55178 2.84384 9.64222 1.35072 11.3499 1.00194C12.1145 0.846 12.8527 0.926152 13.56 1.25033C13.6627 1.29715 13.7418 1.30072 13.8449 1.24993C14.4768 0.94123 15.1107 0.637288 15.747 0.33771C16.0899 0.176216 16.432 0.319061 16.4876 0.657127C16.5071 0.776562 16.4681 0.919803 16.4142 1.03329C16.2023 1.4773 15.9734 1.91377 15.751 2.35341C15.7279 2.39904 15.7072 2.44586 15.6739 2.51609C15.9154 2.49784 16.1313 2.49427 16.3427 2.46213C16.6702 2.41253 16.9011 2.51689 17.0306 2.82004V3.04224H17.0318ZM14.8976 1.85821C14.8883 1.85068 14.8785 1.84314 14.8692 1.8356C14.5932 1.96733 14.3108 2.08716 14.0434 2.23358C13.7828 2.37642 13.5539 2.35619 13.3003 2.20938C12.7565 1.89551 12.1652 1.82528 11.55 1.94987C10.3605 2.19073 9.56025 3.2327 9.38331 4.38141C9.32325 4.77066 9.33623 5.15833 9.40806 5.54679C9.48111 5.93961 9.26481 6.22927 8.89876 6.19792C8.35212 6.1507 7.79898 6.10904 7.26492 5.99238C5.38435 5.5817 3.854 4.61155 2.65602 3.13866C2.5367 2.99224 2.42267 2.84146 2.28915 2.67084C2.17755 3.12517 2.20515 3.54577 2.33136 3.96161C2.44824 4.34689 2.65236 4.68496 2.92873 4.98255C3.07361 5.13849 3.13529 5.31665 3.05129 5.521C2.97053 5.71741 2.80942 5.80986 2.60042 5.83168C2.47177 5.84517 2.34353 5.86303 2.21448 5.86739C2.03552 5.87374 1.85655 5.86898 1.67352 5.86898C1.68894 5.90271 1.7064 5.94596 1.7275 5.98802C2.04607 6.61733 2.54523 7.07364 3.18074 7.38036C3.50256 7.5355 3.85075 7.63946 4.18799 7.76326C4.38116 7.83429 4.50656 7.95967 4.53294 8.16323C4.56013 8.37313 4.47044 8.53224 4.29147 8.64573C4.23263 8.68303 4.17216 8.71834 4.11088 8.75088C3.88281 8.8715 3.65352 8.99094 3.40557 9.12108C3.58494 9.22385 3.74362 9.32384 3.91 9.40876C4.66361 9.79325 5.46754 10.0218 6.30638 10.1396C6.53445 10.1718 6.72356 10.2543 6.80188 10.4856C6.87736 10.7094 6.78078 10.8801 6.62697 11.0416C5.73133 11.9839 4.64616 12.5716 3.33374 12.7402C3.30817 12.7434 3.28463 12.7608 3.24202 12.7795C4.26225 13.1116 5.28898 13.2926 6.33559 13.3703C7.25965 13.439 8.18086 13.4128 9.09639 13.2699C10.1406 13.1069 11.1251 12.7827 12.0159 12.2109C12.7305 11.7522 13.2983 11.1471 13.8051 10.4853C14.4321 9.66588 14.8773 8.75881 15.1265 7.76088C15.3951 6.68597 15.3748 5.6067 15.2008 4.52386C15.1654 4.30483 15.1947 4.10643 15.3253 3.92113C15.4154 3.79337 15.4925 3.65727 15.5883 3.5049C15.316 3.52315 15.0745 3.54775 14.8327 3.55251C14.579 3.55767 14.3684 3.38824 14.3518 3.15255C14.3437 3.03351 14.3798 2.90138 14.4309 2.79067C14.577 2.47483 14.741 2.16811 14.8976 1.85821Z" fill="#444343" stroke="#444343" stroke-width="0.5"/>
</svg>
