<svg width="19" height="15" viewBox="0 0 19 15" fill="none" xmlns="http://www.w3.org/2000/svg">
<path d="M17.734 3.4032C17.4767 3.81706 17.2157 4.22932 16.9661 4.64754C16.9219 4.72174 16.8963 4.82689 16.9093 4.91061C17.1699 6.57753 17.0043 8.19287 16.3079 9.74393C15.9167 10.6157 15.3733 11.3918 14.7349 12.1088C13.3982 13.6111 11.6734 14.3689 9.69181 14.6201C7.35509 14.9165 5.08696 14.628 2.8935 13.79C2.46576 13.6265 2.0571 13.4202 1.71215 13.1147C1.49788 12.925 1.43985 12.7357 1.52304 12.5242C1.60542 12.3155 1.7852 12.2179 2.07009 12.2132C2.58792 12.2048 3.10737 12.2136 3.62276 12.1731C4.48269 12.1056 5.27567 11.8402 5.97774 11.2938C5.8844 11.268 5.8077 11.2474 5.7314 11.2259C4.82155 10.972 3.96203 10.6157 3.21978 10.0276C3.0607 9.90185 2.90811 9.76615 2.76445 9.6241C2.47429 9.33722 2.58629 8.91543 2.98075 8.79837C3.14511 8.74957 3.31231 8.71068 3.49493 8.66267C3.23926 8.49959 2.99414 8.36032 2.76729 8.19644C1.85825 7.53975 1.34164 6.64657 1.15131 5.5673C1.09125 5.22725 1.41306 4.95069 1.76207 5.03203C1.9386 5.0733 2.11148 5.13043 2.29532 5.1836C2.20685 4.92807 2.10621 4.69158 2.0429 4.44597C1.80306 3.51629 1.91791 2.63541 2.46333 1.82556C2.74862 1.40218 3.16215 1.41329 3.41539 1.85294C3.9113 2.71318 4.53464 3.46788 5.32721 4.0833C6.3519 4.87966 7.51499 5.35978 8.8128 5.52762C8.85014 5.53238 8.88747 5.53913 8.92481 5.54349C8.96174 5.54786 8.99867 5.55024 9.04128 5.55381C9.05508 5.29193 9.0567 5.03441 9.0843 4.77927C9.25393 3.20481 10.3444 1.71168 12.0521 1.3629C12.8166 1.20696 13.5548 1.28711 14.2622 1.61129C14.3648 1.65811 14.444 1.66168 14.5471 1.6109C15.1789 1.30219 15.8128 0.99825 16.4491 0.698672C16.7921 0.537178 17.1342 0.680023 17.1898 1.01809C17.2092 1.13752 17.1703 1.28077 17.1163 1.39425C16.9045 1.83826 16.6756 2.27473 16.4532 2.71437C16.4301 2.76 16.4094 2.80682 16.3761 2.87706C16.6175 2.8588 16.8334 2.85523 17.0449 2.82309C17.3724 2.77349 17.6033 2.87785 17.7327 3.181V3.4032H17.734ZM15.5998 2.21918C15.5904 2.21164 15.5807 2.2041 15.5713 2.19656C15.2954 2.32829 15.0129 2.44813 14.7455 2.59454C14.485 2.73739 14.2561 2.71715 14.0024 2.57034C13.4586 2.25648 12.8674 2.18624 12.2521 2.31084C11.0627 2.55169 10.2624 3.59366 10.0855 4.74237C10.0254 5.13163 10.0384 5.51929 10.1102 5.90775C10.1833 6.30057 9.96696 6.59023 9.60091 6.55888C9.05427 6.51166 8.50113 6.47 7.96707 6.35334C6.0865 5.94267 4.55615 4.97251 3.35816 3.49962C3.23885 3.35321 3.12482 3.20243 2.9913 3.03181C2.8797 3.48613 2.9073 3.90673 3.03351 4.32257C3.15038 4.70785 3.35451 5.04592 3.63088 5.34351C3.77575 5.49945 3.83744 5.67761 3.75343 5.88196C3.67268 6.07837 3.51156 6.17082 3.30257 6.19265C3.17392 6.20614 3.04568 6.22399 2.91663 6.22836C2.73766 6.2347 2.5587 6.22994 2.37567 6.22994C2.39109 6.26367 2.40854 6.30692 2.42965 6.34898C2.74822 6.97829 3.24738 7.4346 3.88289 7.74132C4.20471 7.89647 4.5529 8.00043 4.89014 8.12422C5.08331 8.19525 5.20871 8.32064 5.23509 8.52419C5.26228 8.73409 5.17259 8.89321 4.99362 9.00669C4.93478 9.04399 4.87431 9.0793 4.81303 9.11184C4.58496 9.23246 4.35567 9.3519 4.10772 9.48205C4.28709 9.58481 4.44576 9.6848 4.61215 9.76972C5.36576 10.1542 6.16969 10.3828 7.00852 10.5006C7.23659 10.5327 7.42571 10.6153 7.50403 10.8466C7.57951 11.0704 7.48293 11.241 7.32912 11.4025C6.43348 12.3449 5.34831 12.9325 4.03589 13.1012C4.01032 13.1044 3.98678 13.1218 3.94417 13.1405C4.9644 13.4726 5.99113 13.6535 7.03774 13.7313C7.9618 13.7999 8.88301 13.7737 9.79854 13.6309C10.8427 13.4678 11.8272 13.1436 12.718 12.5719C13.4327 12.1132 14.0004 11.5081 14.5073 10.8462C15.1343 10.0268 15.5795 9.11977 15.8286 8.12184C16.0973 7.04694 16.077 5.96766 15.9029 4.88482C15.8676 4.66579 15.8968 4.4674 16.0275 4.28209C16.1176 4.15433 16.1947 4.01823 16.2905 3.86586C16.0182 3.88411 15.7767 3.90871 15.5348 3.91348C15.2812 3.91863 15.0706 3.7492 15.0539 3.51351C15.0458 3.39447 15.0819 3.26234 15.1331 3.15164C15.2792 2.83579 15.4431 2.52907 15.5998 2.21918Z" fill="white" stroke="white" stroke-width="0.5"/>
</svg>
