<svg width="18" height="14" viewBox="0 0 18 14" fill="none" xmlns="http://www.w3.org/2000/svg">
<path d="M15.0453 2.5842C14.9823 2.3371 14.8031 2.15054 14.5982 2.09333C14.2358 1.99134 12.469 1.75917 8.73647 1.75917C5.00391 1.75917 3.23883 1.99134 2.87303 2.09333C2.67065 2.14971 2.49148 2.33627 2.42762 2.5842C2.3372 2.93577 2.10081 4.4092 2.10081 6.7342C2.10081 9.05919 2.3372 10.5318 2.42762 10.885C2.49065 11.1313 2.66982 11.3179 2.87386 11.3742C3.23883 11.4771 5.00391 11.7092 8.73647 11.7092C12.469 11.7092 14.2349 11.4771 14.5999 11.3751C14.8023 11.3187 14.9815 11.1321 15.0453 10.8842C15.1357 10.5326 15.3721 9.05588 15.3721 6.7342C15.3721 4.41252 15.1357 2.93659 15.0453 2.5842ZM16.652 2.1721C17.031 3.64968 17.031 6.7342 17.031 6.7342C17.031 6.7342 17.031 9.81871 16.652 11.2963C16.4413 12.113 15.825 12.7556 15.0445 12.9729C13.6269 13.3676 8.73647 13.3676 8.73647 13.3676C8.73647 13.3676 3.84848 13.3676 2.42844 12.9729C1.64461 12.7523 1.02915 12.1105 0.820957 11.2963C0.441895 9.81871 0.441895 6.7342 0.441895 6.7342C0.441895 6.7342 0.441895 3.64968 0.820957 2.1721C1.03164 1.35537 1.64793 0.712758 2.42844 0.495515C3.84848 0.10083 8.73647 0.10083 8.73647 0.10083C8.73647 0.10083 13.6269 0.10083 15.0445 0.495515C15.8283 0.716075 16.4438 1.35785 16.652 2.1721ZM7.07755 9.6363V3.8321L12.0543 6.7342L7.07755 9.6363Z" fill="#444343"/>
</svg>
