<svg width="18" height="14" viewBox="0 0 18 14" fill="none" xmlns="http://www.w3.org/2000/svg">
<path d="M15.3354 2.52573C15.2723 2.27863 15.0932 2.09207 14.8883 2.03486C14.5258 1.93287 12.7591 1.7007 9.02651 1.7007C5.29395 1.7007 3.52886 1.93287 3.16307 2.03486C2.96069 2.09124 2.78152 2.2778 2.71765 2.52573C2.62724 2.87729 2.39085 4.35073 2.39085 6.67573C2.39085 9.00072 2.62724 10.4733 2.71765 10.8266C2.78069 11.0728 2.95986 11.2594 3.1639 11.3158C3.52886 11.4186 5.29395 11.6508 9.02651 11.6508C12.7591 11.6508 14.525 11.4186 14.8899 11.3166C15.0923 11.2602 15.2715 11.0736 15.3354 10.8257C15.4258 10.4742 15.6622 8.9974 15.6622 6.67573C15.6622 4.35405 15.4258 2.87812 15.3354 2.52573ZM16.942 2.11363C17.3211 3.59121 17.3211 6.67573 17.3211 6.67573C17.3211 6.67573 17.3211 9.76024 16.942 11.2378C16.7313 12.0546 16.1151 12.6972 15.3345 12.9144C13.917 13.3091 9.02651 13.3091 9.02651 13.3091C9.02651 13.3091 4.13852 13.3091 2.71848 12.9144C1.93465 12.6938 1.31919 12.0521 1.111 11.2378C0.731934 9.76024 0.731934 6.67573 0.731934 6.67573C0.731934 6.67573 0.731934 3.59121 1.111 2.11363C1.32168 1.29689 1.93796 0.654286 2.71848 0.437044C4.13852 0.0423583 9.02651 0.0423584 9.02651 0.0423584C9.02651 0.0423584 13.917 0.0423583 15.3345 0.437044C16.1184 0.657603 16.7338 1.29938 16.942 2.11363ZM7.36759 9.57782V3.77363L12.3443 6.67573L7.36759 9.57782Z" fill="white"/>
</svg>
